<?xml version="1.0"?>
<svg xmlns="http://www.w3.org/2000/svg" id="Outline" viewBox="0 0 512 512" width="512px" height="512px"><g><path d="M200.318,172.141l15.71,188.524A8,8,0,0,0,224,368h8v40a8,8,0,0,0,8,8h8v23.21c0,30.8,24.694,56.271,55.046,56.779.323.006.645.008.967.008A56,56,0,0,0,360,440V376.79c0-22.124,17.636-40.418,39.314-40.781A40,40,0,0,1,440,376v48a40.045,40.045,0,0,0,40,40,8,8,0,0,0,0-16,24.027,24.027,0,0,1-24-24V376a56,56,0,0,0-56.954-55.989C368.694,320.519,344,345.99,344,376.79V440a40,40,0,0,1-40.686,39.991C281.636,479.628,264,461.334,264,439.21V416h8a8,8,0,0,0,8-8V368h8a8,8,0,0,0,7.973-7.335l15.71-188.525A87.27,87.27,0,0,0,344,104.013v-.026a88,88,0,1,0-143.682,68.154ZM264,400H248V368h16Zm16.64-48H231.361L216.7,176h78.611ZM256,32a72.1,72.1,0,0,1,71.545,64H296a8,8,0,0,0,0,16h31.561a71.326,71.326,0,0,1-26.3,48H210.742a71.326,71.326,0,0,1-26.3-48H264a8,8,0,0,0,0-16H184.455A72.1,72.1,0,0,1,256,32Z" data-original="#000000" class="active-path" data-old_color="#000000" fill="#B20003"/><path d="M40,424a24.027,24.027,0,0,0,24-24c0-.033,0-.065,0-.1V342.247l48.005-12v31.131A24,24,0,1,0,128,384h0V288a8,8,0,0,0-9.94-7.761l-64,16A8,8,0,0,0,48,304v73.375A24,24,0,1,0,40,424Zm64-32a8,8,0,1,1,8-8A8.009,8.009,0,0,1,104,392Zm8-93.754v15.507l-48,12V310.246ZM40,392a8.008,8.008,0,0,1,8,7.951V400h0a8,8,0,1,1-8-8Z" data-original="#000000" class="active-path" data-old_color="#000000" fill="#B20003"/><path d="M408,256a24.027,24.027,0,0,0,24-24c0-.033,0-.065,0-.1V178.245l54.062,13.516,0-.008A7.972,7.972,0,0,0,496,184V152a8,8,0,0,0-6.06-7.761l-64-16A8,8,0,0,0,416,136v73.375A24,24,0,1,0,408,256Zm72-97.753v15.507l-48-12V146.246ZM408,224a8.007,8.007,0,0,1,8,7.951v.074A8,8,0,1,1,408,224Z" data-original="#000000" class="active-path" data-old_color="#000000" fill="#B20003"/><path d="M80,192a24.027,24.027,0,0,0,24-24c0-.033,0-.065,0-.1V72a8,8,0,0,0-16,0v73.375A24,24,0,1,0,80,192Zm0-32a8.008,8.008,0,0,1,8,7.951v.074A8,8,0,1,1,80,160Z" data-original="#000000" class="active-path" data-old_color="#000000" fill="#B20003"/></g> </svg>
