<?xml version="1.0" encoding="utf-8"?>
<!-- Generator: Adobe Illustrator 23.0.1, SVG Export Plug-In . SVG Version: 6.00 Build 0)  -->
<svg version="1.1" id="Слой_1" xmlns="http://www.w3.org/2000/svg" xmlns:xlink="http://www.w3.org/1999/xlink" x="0px" y="0px"
	 viewBox="0 0 502.94 195.46" style="enable-background:new 0 0 502.94 195.46;" xml:space="preserve">
<style type="text/css">
	.st0{fill:#B20003;}
	.st1{fill:#E9D2BF;}
</style>
<g>
	<path class="st0" d="M361.91,176.99c-17.67-3.34-35.96-5-54.89-5c-15.73,0-29.82,1.07-42.25,3.2c-12.43,2.13-20.69,4.91-24.77,8.32
		c-0.45,1.86-1.3,3.3-2.56,4.31c-1.26,1.01-2.6,1.51-4.01,1.51c-0.82,0-1.5-0.2-2.06-0.58c-0.56-0.39-0.83-0.93-0.83-1.63
		c0-0.78,0.41-1.63,1.22-2.56c8.68-10.01,21.52-17.17,38.52-21.47c17-4.31,36.03-6.46,57.11-6.46c13.06,0,25.92,0.7,38.58,2.09
		s23.3,3.08,31.95,5.06c8.64,1.98,13.75,3.71,15.31,5.18c1.19,1.16,1.78,3.14,1.78,5.94c0,2.4-0.45,5.02-1.34,7.86
		c-0.89,2.83-1.99,5.22-3.28,7.16c-1.3,1.94-2.54,2.91-3.73,2.91c-0.3,0-0.63-0.12-1-0.35
		C394.16,185.49,379.57,180.32,361.91,176.99z"/>
	<path class="st0" d="M129.34,111.89c0,0,0.57,0.46,1.72,1.36c1.14,0.91,1.72,2.07,1.72,3.5c0,0.87-0.18,1.6-0.53,2.19
		c-0.36,0.59-0.61,0.73-0.77,0.41c-0.55-0.95-1.9-1.42-4.03-1.42c-4.74,0-12.75,2.37-24.05,7.11c0.79,3.24,1.3,5.92,1.54,8.05
		c0.71,1.9,1.07,3.28,1.07,4.15c0,0.87-0.12,1.7-0.36,2.49v0.12c-1.58,7.03-7.52,14.75-17.83,23.16s-21.66,15.62-34.06,21.62
		c-12.4,6-21.8,9-28.19,9c-1.82,0-3.24-0.28-4.26-0.83c-3.55-1.9-5.8-5.02-6.75-9.36c-2.77-3.32-4.15-7.07-4.15-11.25
		c0-1.11,0.12-2.25,0.36-3.43c0.47-2.77,4.28-6.83,11.43-12.2c7.15-5.37,16.21-11.06,27.19-17.06c10.98-6,22.15-11.25,33.52-15.75
		c-9.95-3.39-23.85-6.75-41.7-10.07c-1.18-0.24-2.84-0.57-4.98-1.01c-2.13-0.43-3.4-0.73-3.79-0.89c-2.84-1.18-5.13-3.38-6.87-6.57
		c-1.74-3.2-2.96-6.46-3.67-9.77c-2.29-3.71-3.24-6.52-2.84-8.41c1.97-9.4,8.69-19.25,20.14-29.55
		c11.45-10.31,24.48-18.93,39.09-25.88c14.61-6.95,27.05-10.42,37.31-10.42c3.47,0,6.52,0.47,9.12,1.42c1.1,0.47,2.17,2.69,3.2,6.63
		c1.03,1.11,1.9,2.35,2.61,3.73c0.71,1.38,1.03,2.67,0.95,3.85c-1.18,10.03-7.13,19.07-17.83,27.13
		c-10.7,8.06-22.23,14.43-34.59,19.13c-12.36,4.7-19.45,6.65-21.26,5.86c-2.13-0.95-3.69-2.61-4.68-4.98
		c-0.99-2.37-1.48-4.82-1.48-7.34c0-1.66,0.18-3.04,0.53-4.15c0.36-1.1,0.77-1.58,1.24-1.42c0.63,0.24,1.42,0.36,2.37,0.36
		c4.42,0,11.49-2.19,21.2-6.57s19.13-9.57,28.25-15.58c9.12-6,15.18-11.25,18.18-15.75c-1.26-0.31-2.84-0.47-4.74-0.47
		c-8.21,0-18.83,3.4-31.86,10.19C73.78,49.98,61.78,58.31,50.8,68.18c-10.98,9.87-17.89,19.07-20.73,27.6
		c6.08,2.05,16.27,4.19,30.56,6.4c11.13,1.9,19.6,3.57,25.41,5.03c5.8,1.46,9.69,3.26,11.67,5.39c1.18,1.34,2.21,2.92,3.08,4.74
		c9.55-2.84,17.73-4.54,24.52-5.09C127.99,112.01,129.34,111.89,129.34,111.89z M25.57,176.56c6.24,0,14.04-2.41,23.4-7.23
		c9.36-4.82,18.26-10.9,26.71-18.24c8.45-7.34,14.49-14.57,18.12-21.68c-14.21,6.71-28.27,14.57-42.17,23.57
		c-13.9,9-23.53,16.78-28.9,23.34C23.99,176.48,24.94,176.56,25.57,176.56z"/>
	<path class="st0" d="M196.62,81.09c0,0,0.16,0,0.47,0c0.47,0,0.85,0.28,1.13,0.83c0.28,0.55,0.41,1.23,0.41,2.01
		c0,1.26-0.24,2.47-0.71,3.61c-0.47,1.15-1.15,1.88-2.01,2.19c-4.9,1.9-10.37,5.88-16.41,11.96c-6.04,6.08-11.61,12.46-16.7,19.13
		c-5.09,6.67-9.02,12.22-11.79,16.64l-0.24,0.36c-0.55,0.79-1.3,1.18-2.25,1.18c-1.5,0-3.14-0.81-4.92-2.43
		c-1.78-1.62-3.28-3.95-4.5-6.99c-1.23-3.04-1.84-6.61-1.84-10.72c0-1.18,0.04-2.09,0.12-2.72c-3.55,5.29-6.56,10.66-9,16.11
		c-1.11,3.08-1.82,4.94-2.13,5.57l-0.12,0.24c0,0.08-0.02,0.12-0.06,0.12c-0.04,0-0.06-0.04-0.06-0.12c-0.71,0.32-2.01,0-3.91-0.95
		c-1.9-0.95-3.71-2.23-5.45-3.85c-1.74-1.62-2.88-3.26-3.44-4.92c-0.39-1.42,4.01-11.13,13.21-29.14
		c9.2-18.01,19.03-36.21,29.5-54.61c10.46-18.4,17.47-29.45,21.03-33.17c0.31-0.31,0.91-0.47,1.78-0.47c2.13,0,4.95,0.77,8.47,2.31
		c3.51,1.54,5.7,3.1,6.57,4.68c1.18,0.47,2.23,1.26,3.14,2.37c0.91,1.11,1.24,2.13,1.01,3.08c-0.87,3.4-4.31,8.88-10.31,16.47
		c-6,7.58-12.42,14.81-19.25,21.68c-6.83,6.87-11.55,10.82-14.16,11.85c-1.58,2.84-3.24,6-4.98,9.48
		c7.58-6.4,13.66-10.66,18.24-12.79c0.79-0.31,2.39,0.81,4.8,3.38c2.41,2.57,4.13,4.8,5.15,6.69c1.74,1.9,2.61,3.48,2.61,4.74
		c0,0.47-0.12,0.83-0.36,1.07c-2.45,2.69-6.83,5.94-13.15,9.77c-6.32,3.83-12.91,7.52-19.78,11.08c2.37,1.11,4.42,2.29,6.16,3.55
		c1.74,1.26,2.41,2.21,2.01,2.84c-3.55,5.29-5.41,9.24-5.57,11.85c5.13-6.16,12.95-14.16,23.45-23.99
		c10.5-9.83,18.2-16.37,23.1-19.6C196.38,81.21,196.62,81.09,196.62,81.09z M152.32,98.38c9.24-5.76,15.6-10.5,19.07-14.21
		C165.15,87.25,158.79,91.99,152.32,98.38z M166.65,52.78c5.29-5.29,10.11-10.54,14.45-15.75c4.34-5.21,7.42-9.75,9.24-13.62
		C181.81,31.77,173.91,41.57,166.65,52.78z"/>
	<path class="st0" d="M244.71,80.97c0.47,0,0.85,0.3,1.13,0.89c0.28,0.59,0.41,1.36,0.41,2.31c0,1.26-0.24,2.47-0.71,3.61
		c-0.47,1.15-1.15,1.76-2.01,1.84c-2.13,0.16-5.82,2.71-11.08,7.64c-5.25,4.94-11.27,12.4-18.06,22.39
		c-6.79,9.99-13.39,22.21-19.78,36.66c-2.61,7.34-4.84,14.02-6.69,20.02c-1.86,6-3.06,10.31-3.61,12.91
		c-0.08,0.32-0.32,0.47-0.71,0.47c-0.63,0-1.5-0.44-2.61-1.3c-1.18-0.63-2.72-1.88-4.62-3.73c-1.9-1.86-3.55-3.91-4.98-6.16
		c-1.42-2.25-2.13-4.29-2.13-6.1c0-2.92,2.37-8.19,7.11-15.81c4.74-7.62,10.82-16.17,18.24-25.65c4.82-11.21,8.61-19.82,11.37-25.82
		c-4.9,4.9-9.81,10.25-14.75,16.05c-4.94,5.8-8.9,10.68-11.9,14.63c-0.79,1.42-1.38,2.25-1.78,2.49c-0.79,0.16-1.95-0.77-3.49-2.78
		c-1.54-2.01-2.84-4.18-3.91-6.51c-1.07-2.33-1.36-3.73-0.89-4.21c1.66-1.82,4.42-7.05,8.29-15.7c3.87-8.65,7.7-17.89,11.49-27.72
		c3.79-9.83,6.2-16.6,7.23-20.31c0.16-0.63,1.64-0.51,4.44,0.36c2.8,0.87,5.49,2,8.05,3.38c2.57,1.38,3.65,2.39,3.26,3.02
		c-1.34,2.29-3.46,6.46-6.34,12.5c-2.88,6.04-5.82,12.3-8.83,18.77c2.61-3.16,4.92-5.86,6.93-8.11c2.01-2.25,3.22-3.45,3.61-3.61
		c0.87-0.31,2.62,0.04,5.27,1.07c2.65,1.03,4.76,2.05,6.34,3.08l0.24,0.12c0.31,0.24,0.57,0.46,0.77,0.65
		c0.2,0.2,0.26,0.34,0.18,0.41c0.16,0.24,0.16,0.44,0,0.59c-1.82,2.84-4.58,8.57-8.29,17.18c12.71-14.06,23.26-23.77,31.63-29.14
		C244,81.09,244.39,80.97,244.71,80.97z"/>
	<path class="st0" d="M393.31,41.47c-0.75,0.83-2.03,1.24-3.85,1.24c-2.45,0-4.36-0.45-5.74-1.36c-1.38-0.91-2.07-1.8-2.07-2.67
		c0-0.71,0.39-1.07,1.19-1.07c2.29,0.24,3.95-1.14,4.97-4.15c-4.42-3.24-10.41-5.65-17.95-7.23c-7.54-1.58-16.09-2.37-25.65-2.37
		c-10.66,0-21.64,0.91-32.93,2.72c-10.03,9.4-20.77,22.63-32.22,39.68c8.84-2.05,16.9-3.08,24.17-3.08c9.16,0,15.63,1.74,19.43,5.21
		c0.63,0.55,1.08,1.54,1.36,2.96c0.28,1.42,0.41,2.96,0.41,4.62c1.11,2.05,1.66,3.99,1.66,5.8c0,2.05-0.71,3.52-2.13,4.38
		c-1.82,1.18-4.15,1.78-6.99,1.78c-1.26,0-2.35-0.14-3.26-0.41c-0.91-0.28-1.4-0.65-1.48-1.13c-0.24-0.87-0.16-1.54,0.24-2.01
		c0.39-0.47,1.11-1.03,2.13-1.66c1.58-0.95,2.8-1.93,3.67-2.96c-3.79-0.95-8.41-1.42-13.86-1.42s-11.35,0.51-17.71,1.54
		c-6.36,1.03-12.66,2.49-18.89,4.38c-8.05,13.74-14.63,26.65-19.72,38.74c-5.09,12.08-7.64,21-7.64,26.77
		c0,0.63,0.08,1.42,0.24,2.37c0.87,0.95,1.3,2.49,1.3,4.62c0,1.66-0.3,3.1-0.89,4.32c-0.59,1.22-1.24,1.6-1.95,1.13
		c-0.08,0.16-0.24,0.12-0.47-0.12c-4.98-5.29-9.64-12.04-13.98-20.26c-4.34-8.21-6.99-18.12-7.94-29.73v-0.71
		c-0.16-5.61,0.83-10.26,2.96-13.98c2.45-4.26,7.15-8.59,14.1-12.97c6.95-4.38,15-8.31,24.17-11.79
		c7.58-13.03,16.27-26.3,26.06-39.8c-10.9,3.32-19.96,7.27-27.19,11.85c-7.23,4.58-11.55,9.44-12.97,14.57
		c-0.24,0.71-1.28,0.57-3.14-0.41c-1.86-0.99-3.59-2.43-5.21-4.32c-1.62-1.9-2.43-3.79-2.43-5.69c0-0.63,0.2-1.42,0.59-2.37
		c1.74-3.79,5.8-7.82,12.2-12.08c6.4-4.26,14.31-8.39,23.75-12.38c9.44-3.99,19.45-7.36,30.03-10.13c3.24-4.34,4.9-6.75,4.97-7.23
		c0.31-1.9,1.11-2.84,2.37-2.84c1.03,0,2.27,0.61,3.73,1.84c1.46,1.23,2.86,2.78,4.21,4.68c11.85-2.29,22.63-3.44,32.34-3.44
		c15.71,0,27.8,2.92,36.25,8.77c4.03,2.84,6.85,6.62,8.47,11.31c1.62,4.7,2.39,8.94,2.31,12.73
		C394.4,39.39,394.06,40.64,393.31,41.47z M233.81,141.38c0-13.19,4.54-29.42,13.62-48.69c-13.9,7.58-22.74,16.63-26.53,27.13
		c0.71,5.92,2.25,10.88,4.62,14.87c2.37,3.99,5.17,7.48,8.41,10.48C233.85,144.38,233.81,143.12,233.81,141.38z"/>
	<path class="st0" d="M350.96,83.81c0.63,0,1.14,0.36,1.54,1.07c0.39,0.71,0.59,1.54,0.59,2.49c0,1.34-0.32,2.37-0.95,3.08
		c-7.27,9.32-15.89,19.31-25.88,29.97c-9.99,10.66-16.37,16.54-19.13,17.65c0.08,0.55-1.03,0.45-3.32-0.3
		c-2.29-0.75-4.62-1.97-6.99-3.67c-2.37-1.7-4.03-3.69-4.98-5.98c-0.39-1.03-0.59-2.25-0.59-3.67c0-3.95,1.18-8.98,3.55-15.1
		c2.37-6.12,5.92-12.48,10.66-19.07c4.74-6.59,10.46-12.5,17.18-17.71c0.79-0.55,2.23-0.1,4.32,1.36c2.09,1.46,4.09,3.2,5.98,5.21
		c1.89,2.01,2.76,3.26,2.61,3.73c1.74,2.05,2.61,3.59,2.61,4.62c-0.08,1.11-1.76,3.51-5.03,7.23c-3.28,3.71-6.75,7.17-10.42,10.37
		c-3.67,3.2-6.14,4.8-7.4,4.8c-0.47,0-0.95-0.24-1.42-0.71c-2.45,5.69-4.31,11.29-5.57,16.82c6.4-3.08,12.02-7.17,16.88-12.26
		c4.86-5.09,10.17-11.43,15.93-19.01c3.87-4.98,6.47-8.21,7.82-9.71C349.66,84.21,350.33,83.81,350.96,83.81z M317.79,101.46
		c3-1.82,5.71-4.24,8.11-7.28c2.41-3.04,4.28-6.14,5.63-9.3C326.88,87.88,322.3,93.41,317.79,101.46z"/>
	<path class="st0" d="M393.37,86.89c0.95,0.79,1.62,1.68,2.01,2.67c0.39,0.99,0.36,1.48-0.12,1.48c-2.21-0.24-6.51,0.97-12.91,3.61
		c-6.4,2.65-12.99,6.14-19.78,10.48c0.31,0.79,0.63,1.48,0.95,2.07c0.32,0.59,0.55,1.09,0.71,1.48c1.42,1.9,2.13,4.07,2.13,6.52
		c0,4.11-1.82,8.49-5.45,13.15c-3.63,4.66-7.84,8.77-12.62,12.32c-4.78,3.55-8.47,5.57-11.08,6.04c-0.87,0.16-2.11-0.63-3.73-2.37
		c-1.62-1.74-3.18-3.75-4.68-6.04c-1.5-2.29-2.41-3.99-2.72-5.09c-1.66-1.5-2.49-2.8-2.49-3.91c0-0.47,0.16-0.87,0.47-1.18
		c7.42-7.74,17.65-15.64,30.68-23.69l-0.59-1.54c-0.55-1.03-1.62-2.57-3.2-4.62c-2.05-2.37-3.51-4.22-4.38-5.57
		c-0.87-1.34-1.3-2.8-1.3-4.38c0-4.03,1.58-8.05,4.74-12.08c3.16-4.03,6.75-7.36,10.78-10.01c4.03-2.65,6.87-3.81,8.53-3.49
		c3.08,0.55,5.41,2.25,6.99,5.09c1.58,2.84,2.37,5.69,2.37,8.53c0,1.03-0.12,1.82-0.36,2.37c-0.24,0.55-0.55,0.79-0.95,0.71
		c-0.63-0.16-1.26-0.24-1.89-0.24c-1.9,0-4.07,0.49-6.52,1.48c-2.45,0.99-4.54,2.35-6.28,4.09c-1.89,2.53-2.84,5.57-2.84,9.12
		c0,1.98,0.36,4.23,1.07,6.75c6.47-3.79,12.58-7.07,18.3-9.83c5.72-2.76,9.38-4.3,10.96-4.62C391.35,85.87,392.42,86.1,393.37,86.89
		z M354.52,110.47c-7.27,5.45-13.11,10.9-17.53,16.35C347.01,121.05,352.86,115.6,354.52,110.47z"/>
	<path class="st0" d="M496.54,40.58c1.11,3.55,1.66,6.91,1.66,10.07c0,1.74-0.08,2.45-0.24,2.13c-0.47,1.18-1.7,1.78-3.67,1.78
		c-1.26-0.08-2.29-0.39-3.08-0.95c-0.79-0.55-1.26-1.14-1.42-1.78c-0.16-0.63,0-0.91,0.47-0.83c1.58,0.08,2.72-0.75,3.43-2.49
		c-3.4-2.13-8.15-3.73-14.27-4.8c-6.12-1.07-13.05-1.6-20.79-1.6c-9.79,0-19.47,0.75-29.02,2.25c-7.11,7.9-13.96,16.6-20.55,26.12
		c-6.59,9.52-12.18,19.17-16.76,28.96c-4.58,9.79-7.27,18.72-8.05,26.77c4.5-2.45,9.91-7.01,16.23-13.68
		c6.32-6.67,11.92-13.33,16.82-19.96c4.9-6.63,7.23-10.46,6.99-11.49c-0.24-1.1,0.16-1.66,1.18-1.66c1.11,0,2.19,0.65,3.26,1.95
		c1.07,1.3,1.52,2.94,1.36,4.92c-0.16,1.34-3.75,6.3-10.78,14.87c-7.03,8.57-14.2,16.74-21.5,24.52
		c-7.3,7.78-11.75,11.79-13.33,12.02h-0.24c-1.03,0-2.01-0.47-2.96-1.42c-2.69-1.5-5.37-3.75-8.05-6.75c-2.68-3-4.03-5.65-4.03-7.94
		c0-0.47,0.04-0.83,0.12-1.07c1.97-8.77,6.22-19.54,12.73-32.34c6.51-12.79,13.96-25.51,22.33-38.14
		c-5.29,1.5-10.58,3.52-15.87,6.04c-0.47,0.24-1.4-0.24-2.78-1.42c-1.38-1.18-2.65-2.62-3.79-4.32c-1.15-1.7-1.72-3.1-1.72-4.21
		c0-0.79,0.32-1.3,0.95-1.54c2.84-1.34,7.15-2.74,12.91-4.21c5.76-1.46,12.36-2.86,19.78-4.21c4.82-6.71,9.28-12.42,13.39-17.12
		c4.11-4.7,7.5-7.96,10.19-9.77c0.71-0.47,1.54-0.71,2.49-0.71c1.97,0,4.18,0.87,6.63,2.61c2.45,1.74,4.58,3.71,6.4,5.92
		c1.82,2.21,2.72,3.83,2.72,4.86c0,0.47-0.24,0.79-0.71,0.95c-2.77,0.47-7.19,3.51-13.27,9.12c12.16-1.42,22.35-2.13,30.56-2.13
		c9.4,0,15.52,0.91,18.36,2.72C493.46,34.38,495.43,37.02,496.54,40.58z"/>
</g>
<g>
	<path class="st1" d="M355.8,176.99c-17.67-3.34-35.96-5-54.89-5c-15.73,0-29.82,1.07-42.25,3.2c-12.43,2.13-20.69,4.91-24.77,8.32
		c-0.45,1.86-1.3,3.3-2.56,4.31c-1.26,1.01-2.6,1.51-4.01,1.51c-0.82,0-1.5-0.2-2.06-0.58c-0.56-0.39-0.83-0.93-0.83-1.63
		c0-0.78,0.41-1.63,1.22-2.56c8.68-10.01,21.52-17.17,38.52-21.47c17-4.31,36.03-6.46,57.11-6.46c13.06,0,25.92,0.7,38.58,2.09
		s23.3,3.08,31.95,5.06c8.64,1.98,13.75,3.71,15.31,5.18c1.19,1.16,1.78,3.14,1.78,5.94c0,2.4-0.45,5.02-1.34,7.86
		c-0.89,2.83-1.99,5.22-3.28,7.16c-1.3,1.94-2.54,2.91-3.73,2.91c-0.3,0-0.63-0.12-1-0.35C388.04,185.49,373.46,180.32,355.8,176.99
		z"/>
	<path class="st1" d="M123.67,111.89c0,0,0.57,0.46,1.72,1.36c1.14,0.91,1.72,2.07,1.72,3.5c0,0.87-0.18,1.6-0.53,2.19
		c-0.36,0.59-0.61,0.73-0.77,0.41c-0.55-0.95-1.9-1.42-4.03-1.42c-4.74,0-12.75,2.37-24.05,7.11c0.79,3.24,1.3,5.92,1.54,8.05
		c0.71,1.9,1.07,3.28,1.07,4.15c0,0.87-0.12,1.7-0.36,2.49v0.12c-1.58,7.03-7.52,14.75-17.83,23.16s-21.66,15.62-34.06,21.62
		c-12.4,6-21.8,9-28.19,9c-1.82,0-3.24-0.28-4.26-0.83c-3.55-1.9-5.8-5.02-6.75-9.36c-2.77-3.32-4.15-7.07-4.15-11.25
		c0-1.11,0.12-2.25,0.36-3.43c0.47-2.77,4.28-6.83,11.43-12.2c7.15-5.37,16.21-11.06,27.19-17.06c10.98-6,22.15-11.25,33.52-15.75
		c-9.95-3.39-23.85-6.75-41.7-10.07c-1.18-0.24-2.84-0.57-4.98-1.01c-2.13-0.43-3.4-0.73-3.79-0.89c-2.84-1.18-5.13-3.38-6.87-6.57
		c-1.74-3.2-2.96-6.46-3.67-9.77c-2.29-3.71-3.24-6.52-2.84-8.41c1.97-9.4,8.69-19.25,20.14-29.55C44.97,47.15,58,38.52,72.62,31.57
		c14.61-6.95,27.05-10.42,37.31-10.42c3.47,0,6.52,0.47,9.12,1.42c1.1,0.47,2.17,2.69,3.2,6.63c1.03,1.11,1.9,2.35,2.61,3.73
		c0.71,1.38,1.03,2.67,0.95,3.85c-1.18,10.03-7.13,19.07-17.83,27.13c-10.7,8.06-22.23,14.43-34.59,19.13
		c-12.36,4.7-19.45,6.65-21.26,5.86c-2.13-0.95-3.69-2.61-4.68-4.98c-0.99-2.37-1.48-4.82-1.48-7.34c0-1.66,0.18-3.04,0.53-4.15
		c0.36-1.1,0.77-1.58,1.24-1.42c0.63,0.24,1.42,0.36,2.37,0.36c4.42,0,11.49-2.19,21.2-6.57s19.13-9.57,28.25-15.58
		c9.12-6,15.18-11.25,18.18-15.75c-1.26-0.31-2.84-0.47-4.74-0.47c-8.21,0-18.83,3.4-31.86,10.19
		c-13.03,6.79-25.03,15.12-36.01,24.99c-10.98,9.87-17.89,19.07-20.73,27.6c6.08,2.05,16.27,4.19,30.56,6.4
		c11.13,1.9,19.6,3.57,25.41,5.03c5.8,1.46,9.69,3.26,11.67,5.39c1.18,1.34,2.21,2.92,3.08,4.74c9.55-2.84,17.73-4.54,24.52-5.09
		C122.33,112.01,123.67,111.89,123.67,111.89z M19.9,176.56c6.24,0,14.04-2.41,23.4-7.23c9.36-4.82,18.26-10.9,26.71-18.24
		c8.45-7.34,14.49-14.57,18.12-21.68c-14.21,6.71-28.27,14.57-42.17,23.57c-13.9,9-23.53,16.78-28.9,23.34
		C18.32,176.48,19.27,176.56,19.9,176.56z"/>
	<path class="st1" d="M190.95,81.09c0,0,0.16,0,0.47,0c0.47,0,0.85,0.28,1.13,0.83c0.28,0.55,0.41,1.23,0.41,2.01
		c0,1.26-0.24,2.47-0.71,3.61c-0.47,1.15-1.15,1.88-2.01,2.19c-4.9,1.9-10.37,5.88-16.41,11.96c-6.04,6.08-11.61,12.46-16.7,19.13
		c-5.09,6.67-9.02,12.22-11.79,16.64l-0.24,0.36c-0.55,0.79-1.3,1.18-2.25,1.18c-1.5,0-3.14-0.81-4.92-2.43
		c-1.78-1.62-3.28-3.95-4.5-6.99c-1.23-3.04-1.84-6.61-1.84-10.72c0-1.18,0.04-2.09,0.12-2.72c-3.55,5.29-6.56,10.66-9,16.11
		c-1.11,3.08-1.82,4.94-2.13,5.57l-0.12,0.24c0,0.08-0.02,0.12-0.06,0.12c-0.04,0-0.06-0.04-0.06-0.12c-0.71,0.32-2.01,0-3.91-0.95
		c-1.9-0.95-3.71-2.23-5.45-3.85c-1.74-1.62-2.88-3.26-3.44-4.92c-0.39-1.42,4.01-11.13,13.21-29.14
		c9.2-18.01,19.03-36.21,29.5-54.61c10.46-18.4,17.47-29.45,21.03-33.17c0.31-0.31,0.91-0.47,1.78-0.47c2.13,0,4.95,0.77,8.47,2.31
		c3.51,1.54,5.7,3.1,6.57,4.68c1.18,0.47,2.23,1.26,3.14,2.37c0.91,1.11,1.24,2.13,1.01,3.08c-0.87,3.4-4.31,8.88-10.31,16.47
		c-6,7.58-12.42,14.81-19.25,21.68c-6.83,6.87-11.55,10.82-14.16,11.85c-1.58,2.84-3.24,6-4.98,9.48
		c7.58-6.4,13.66-10.66,18.24-12.79c0.79-0.31,2.39,0.81,4.8,3.38c2.41,2.57,4.13,4.8,5.15,6.69c1.74,1.9,2.61,3.48,2.61,4.74
		c0,0.47-0.12,0.83-0.36,1.07c-2.45,2.69-6.83,5.94-13.15,9.77c-6.32,3.83-12.91,7.52-19.78,11.08c2.37,1.11,4.42,2.29,6.16,3.55
		c1.74,1.26,2.41,2.21,2.01,2.84c-3.55,5.29-5.41,9.24-5.57,11.85c5.13-6.16,12.95-14.16,23.45-23.99
		c10.5-9.83,18.2-16.37,23.1-19.6C190.71,81.21,190.95,81.09,190.95,81.09z M146.65,98.38c9.24-5.76,15.6-10.5,19.07-14.21
		C159.48,87.25,153.12,91.99,146.65,98.38z M160.98,52.78c5.29-5.29,10.11-10.54,14.45-15.75c4.34-5.21,7.42-9.75,9.24-13.62
		C176.14,31.77,168.25,41.57,160.98,52.78z"/>
	<path class="st1" d="M239.04,80.97c0.47,0,0.85,0.3,1.13,0.89c0.28,0.59,0.41,1.36,0.41,2.31c0,1.26-0.24,2.47-0.71,3.61
		c-0.47,1.15-1.15,1.76-2.01,1.84c-2.13,0.16-5.82,2.71-11.08,7.64c-5.25,4.94-11.27,12.4-18.06,22.39
		c-6.79,9.99-13.39,22.21-19.78,36.66c-2.61,7.34-4.84,14.02-6.69,20.02c-1.86,6-3.06,10.31-3.61,12.91
		c-0.08,0.32-0.32,0.47-0.71,0.47c-0.63,0-1.5-0.44-2.61-1.3c-1.18-0.63-2.72-1.88-4.62-3.73c-1.9-1.86-3.55-3.91-4.98-6.16
		c-1.42-2.25-2.13-4.29-2.13-6.1c0-2.92,2.37-8.19,7.11-15.81c4.74-7.62,10.82-16.17,18.24-25.65c4.82-11.21,8.61-19.82,11.37-25.82
		c-4.9,4.9-9.81,10.25-14.75,16.05c-4.94,5.8-8.9,10.68-11.9,14.63c-0.79,1.42-1.38,2.25-1.78,2.49c-0.79,0.16-1.95-0.77-3.49-2.78
		c-1.54-2.01-2.84-4.18-3.91-6.51c-1.07-2.33-1.36-3.73-0.89-4.21c1.66-1.82,4.42-7.05,8.29-15.7c3.87-8.65,7.7-17.89,11.49-27.72
		c3.79-9.83,6.2-16.6,7.23-20.31c0.16-0.63,1.64-0.51,4.44,0.36c2.8,0.87,5.49,2,8.05,3.38c2.57,1.38,3.65,2.39,3.26,3.02
		c-1.34,2.29-3.46,6.46-6.34,12.5c-2.88,6.04-5.82,12.3-8.83,18.77c2.61-3.16,4.92-5.86,6.93-8.11c2.01-2.25,3.22-3.45,3.61-3.61
		c0.87-0.31,2.62,0.04,5.27,1.07c2.65,1.03,4.76,2.05,6.34,3.08l0.24,0.12c0.31,0.24,0.57,0.46,0.77,0.65
		c0.2,0.2,0.26,0.34,0.18,0.41c0.16,0.24,0.16,0.44,0,0.59c-1.82,2.84-4.58,8.57-8.29,17.18c12.71-14.06,23.26-23.77,31.63-29.14
		C238.33,81.09,238.73,80.97,239.04,80.97z"/>
	<path class="st1" d="M387.64,41.47c-0.75,0.83-2.03,1.24-3.85,1.24c-2.45,0-4.36-0.45-5.74-1.36c-1.38-0.91-2.07-1.8-2.07-2.67
		c0-0.71,0.39-1.07,1.19-1.07c2.29,0.24,3.95-1.14,4.97-4.15c-4.42-3.24-10.41-5.65-17.95-7.23c-7.54-1.58-16.09-2.37-25.65-2.37
		c-10.66,0-21.64,0.91-32.93,2.72c-10.03,9.4-20.77,22.63-32.22,39.68c8.84-2.05,16.9-3.08,24.17-3.08c9.16,0,15.63,1.74,19.43,5.21
		c0.63,0.55,1.08,1.54,1.36,2.96c0.28,1.42,0.41,2.96,0.41,4.62c1.11,2.05,1.66,3.99,1.66,5.8c0,2.05-0.71,3.52-2.13,4.38
		c-1.82,1.18-4.15,1.78-6.99,1.78c-1.26,0-2.35-0.14-3.26-0.41c-0.91-0.28-1.4-0.65-1.48-1.13c-0.24-0.87-0.16-1.54,0.24-2.01
		c0.39-0.47,1.11-1.03,2.13-1.66c1.58-0.95,2.8-1.93,3.67-2.96c-3.79-0.95-8.41-1.42-13.86-1.42s-11.35,0.51-17.71,1.54
		c-6.36,1.03-12.66,2.49-18.89,4.38c-8.05,13.74-14.63,26.65-19.72,38.74c-5.09,12.08-7.64,21-7.64,26.77
		c0,0.63,0.08,1.42,0.24,2.37c0.87,0.95,1.3,2.49,1.3,4.62c0,1.66-0.3,3.1-0.89,4.32c-0.59,1.22-1.24,1.6-1.95,1.13
		c-0.08,0.16-0.24,0.12-0.47-0.12c-4.98-5.29-9.64-12.04-13.98-20.26c-4.34-8.21-6.99-18.12-7.94-29.73v-0.71
		c-0.16-5.61,0.83-10.26,2.96-13.98c2.45-4.26,7.15-8.59,14.1-12.97c6.95-4.38,15-8.31,24.17-11.79
		c7.58-13.03,16.27-26.3,26.06-39.8c-10.9,3.32-19.96,7.27-27.19,11.85c-7.23,4.58-11.55,9.44-12.97,14.57
		c-0.24,0.71-1.28,0.57-3.14-0.41c-1.86-0.99-3.59-2.43-5.21-4.32c-1.62-1.9-2.43-3.79-2.43-5.69c0-0.63,0.2-1.42,0.59-2.37
		c1.74-3.79,5.8-7.82,12.2-12.08c6.4-4.26,14.31-8.39,23.75-12.38c9.44-3.99,19.45-7.36,30.03-10.13c3.24-4.34,4.9-6.75,4.97-7.23
		c0.31-1.9,1.11-2.84,2.37-2.84c1.03,0,2.27,0.61,3.73,1.84c1.46,1.23,2.86,2.78,4.21,4.68c11.85-2.29,22.63-3.44,32.34-3.44
		c15.71,0,27.8,2.92,36.25,8.77c4.03,2.84,6.85,6.62,8.47,11.31c1.62,4.7,2.39,8.94,2.31,12.73
		C388.73,39.39,388.39,40.64,387.64,41.47z M228.14,141.38c0-13.19,4.54-29.42,13.62-48.69c-13.9,7.58-22.74,16.63-26.53,27.13
		c0.71,5.92,2.25,10.88,4.62,14.87c2.37,3.99,5.17,7.48,8.41,10.48C228.18,144.38,228.14,143.12,228.14,141.38z"/>
	<path class="st1" d="M345.3,83.81c0.63,0,1.14,0.36,1.54,1.07c0.39,0.71,0.59,1.54,0.59,2.49c0,1.34-0.32,2.37-0.95,3.08
		c-7.27,9.32-15.89,19.31-25.88,29.97c-9.99,10.66-16.37,16.54-19.13,17.65c0.08,0.55-1.03,0.45-3.32-0.3
		c-2.29-0.75-4.62-1.97-6.99-3.67c-2.37-1.7-4.03-3.69-4.98-5.98c-0.39-1.03-0.59-2.25-0.59-3.67c0-3.95,1.18-8.98,3.55-15.1
		c2.37-6.12,5.92-12.48,10.66-19.07c4.74-6.59,10.46-12.5,17.18-17.71c0.79-0.55,2.23-0.1,4.32,1.36c2.09,1.46,4.09,3.2,5.98,5.21
		c1.89,2.01,2.76,3.26,2.61,3.73c1.74,2.05,2.61,3.59,2.61,4.62c-0.08,1.11-1.76,3.51-5.03,7.23c-3.28,3.71-6.75,7.17-10.42,10.37
		c-3.67,3.2-6.14,4.8-7.4,4.8c-0.47,0-0.95-0.24-1.42-0.71c-2.45,5.69-4.31,11.29-5.57,16.82c6.4-3.08,12.02-7.17,16.88-12.26
		c4.86-5.09,10.17-11.43,15.93-19.01c3.87-4.98,6.47-8.21,7.82-9.71C343.99,84.21,344.66,83.81,345.3,83.81z M312.13,101.46
		c3-1.82,5.71-4.24,8.11-7.28c2.41-3.04,4.28-6.14,5.63-9.3C321.21,87.88,316.63,93.41,312.13,101.46z"/>
	<path class="st1" d="M387.7,86.89c0.95,0.79,1.62,1.68,2.01,2.67c0.39,0.99,0.36,1.48-0.12,1.48c-2.21-0.24-6.51,0.97-12.91,3.61
		c-6.4,2.65-12.99,6.14-19.78,10.48c0.31,0.79,0.63,1.48,0.95,2.07c0.32,0.59,0.55,1.09,0.71,1.48c1.42,1.9,2.13,4.07,2.13,6.52
		c0,4.11-1.82,8.49-5.45,13.15c-3.63,4.66-7.84,8.77-12.62,12.32c-4.78,3.55-8.47,5.57-11.08,6.04c-0.87,0.16-2.11-0.63-3.73-2.37
		c-1.62-1.74-3.18-3.75-4.68-6.04c-1.5-2.29-2.41-3.99-2.72-5.09c-1.66-1.5-2.49-2.8-2.49-3.91c0-0.47,0.16-0.87,0.47-1.18
		c7.42-7.74,17.65-15.64,30.68-23.69l-0.59-1.54c-0.55-1.03-1.62-2.57-3.2-4.62c-2.05-2.37-3.51-4.22-4.38-5.57
		c-0.87-1.34-1.3-2.8-1.3-4.38c0-4.03,1.58-8.05,4.74-12.08c3.16-4.03,6.75-7.36,10.78-10.01c4.03-2.65,6.87-3.81,8.53-3.49
		c3.08,0.55,5.41,2.25,6.99,5.09c1.58,2.84,2.37,5.69,2.37,8.53c0,1.03-0.12,1.82-0.36,2.37c-0.24,0.55-0.55,0.79-0.95,0.71
		c-0.63-0.16-1.26-0.24-1.89-0.24c-1.9,0-4.07,0.49-6.52,1.48c-2.45,0.99-4.54,2.35-6.28,4.09c-1.89,2.53-2.84,5.57-2.84,9.12
		c0,1.98,0.36,4.23,1.07,6.75c6.47-3.79,12.58-7.07,18.3-9.83c5.72-2.76,9.38-4.3,10.96-4.62C385.69,85.87,386.75,86.1,387.7,86.89z
		 M348.85,110.47c-7.27,5.45-13.11,10.9-17.53,16.35C341.34,121.05,347.19,115.6,348.85,110.47z"/>
	<path class="st1" d="M490.87,40.58c1.11,3.55,1.66,6.91,1.66,10.07c0,1.74-0.08,2.45-0.24,2.13c-0.47,1.18-1.7,1.78-3.67,1.78
		c-1.26-0.08-2.29-0.39-3.08-0.95c-0.79-0.55-1.26-1.14-1.42-1.78c-0.16-0.63,0-0.91,0.47-0.83c1.58,0.08,2.72-0.75,3.43-2.49
		c-3.4-2.13-8.15-3.73-14.27-4.8c-6.12-1.07-13.05-1.6-20.79-1.6c-9.79,0-19.47,0.75-29.02,2.25c-7.11,7.9-13.96,16.6-20.55,26.12
		c-6.59,9.52-12.18,19.17-16.76,28.96c-4.58,9.79-7.27,18.72-8.05,26.77c4.5-2.45,9.91-7.01,16.23-13.68
		c6.32-6.67,11.92-13.33,16.82-19.96c4.9-6.63,7.23-10.46,6.99-11.49c-0.24-1.1,0.16-1.66,1.18-1.66c1.11,0,2.19,0.65,3.26,1.95
		c1.07,1.3,1.52,2.94,1.36,4.92c-0.16,1.34-3.75,6.3-10.78,14.87c-7.03,8.57-14.2,16.74-21.5,24.52
		c-7.3,7.78-11.75,11.79-13.33,12.02h-0.24c-1.03,0-2.01-0.47-2.96-1.42c-2.69-1.5-5.37-3.75-8.05-6.75c-2.68-3-4.03-5.65-4.03-7.94
		c0-0.47,0.04-0.83,0.12-1.07c1.97-8.77,6.22-19.54,12.73-32.34c6.51-12.79,13.96-25.51,22.33-38.14
		c-5.29,1.5-10.58,3.52-15.87,6.04c-0.47,0.24-1.4-0.24-2.78-1.42c-1.38-1.18-2.65-2.62-3.79-4.32c-1.15-1.7-1.72-3.1-1.72-4.21
		c0-0.79,0.32-1.3,0.95-1.54c2.84-1.34,7.15-2.74,12.91-4.21c5.76-1.46,12.36-2.86,19.78-4.21c4.82-6.71,9.28-12.42,13.39-17.12
		c4.11-4.7,7.5-7.96,10.19-9.77c0.71-0.47,1.54-0.71,2.49-0.71c1.97,0,4.18,0.87,6.63,2.61c2.45,1.74,4.58,3.71,6.4,5.92
		c1.82,2.21,2.72,3.83,2.72,4.86c0,0.47-0.24,0.79-0.71,0.95c-2.77,0.47-7.19,3.51-13.27,9.12c12.16-1.42,22.35-2.13,30.56-2.13
		c9.4,0,15.52,0.91,18.36,2.72C487.8,34.38,489.77,37.02,490.87,40.58z"/>
</g>
</svg>
